<?xml version="1.0" encoding="utf-8"?>
<!-- Generator: Adobe Illustrator 19.0.0, SVG Export Plug-In . SVG Version: 6.00 Build 0)  -->
<svg version="1.1" id="Layer_1" xmlns="http://www.w3.org/2000/svg" xmlns:xlink="http://www.w3.org/1999/xlink" x="0px" y="0px"
	 viewBox="0 0 960 560" style="enable-background:new 0 0 960 560;" xml:space="preserve">
<style type="text/css">
	.st0{fill:#EF7B22;}
</style>
<path id="XMLID_31_" class="st0" d="M618.4,154.8c4.9-7.8,10.6-13.9,19.1-16.9c17.5-6.1,36.3,5.7,37.7,24.2
	c0.9,12-0.1,24.2,0.6,36.3c2.3,38.2-3.5,75.4-11.9,112.5c-4.4,19.2-7.9,38.6-11.7,57.9c-3.1,15.8-14.5,25.7-30.5,25.7
	c-98.3,0.1-196.5,0.1-294.8,0c-16.4,0-26.7-9.1-29.9-25.2c-7.3-37.1-14.8-74.1-22.1-111.3c-1-5.2-1.4-10.7-1.5-16
	c-0.1-53.2-0.1-106.3,0-159.5c0.1-31.6,18.2-54.3,47.8-60.1c3.5-0.7,7.1-0.8,10.7-0.8c75.8,0,151.6-0.1,227.5,0
	c33.5,0,58.6,25,58.9,58.6C618.5,105.1,618.4,129.9,618.4,154.8z M560.5,222c0-28.7,0-56.6,0-85.1c-76.3,0-152.4,0-229,0
	c0,28.5,0,56.7,0,85.1C407.9,222,483.9,222,560.5,222z"/>
<path id="XMLID_30_" class="st0" d="M320.1,423.9c95.8,0,191.2,0,286.9,0c0.1,2.4,0.3,4.4,0.4,6.3c0,25.6,0.1,51.1,0,76.7
	c0,19.5-12,31.4-31.4,31.4c-74.9,0-149.8,0-224.8,0c-19.5,0-31.4-11.9-31.4-31.4c-0.1-25.6,0-51.1,0-76.7
	C319.8,428.3,320,426.3,320.1,423.9z"/>
</svg>
